<svg width="18" height="20" viewBox="0 0 18 20" fill="none" xmlns="http://www.w3.org/2000/svg">
<path d="M9 11.25C11.7949 11.25 14.0625 8.73047 14.0625 5.625C14.0625 2.51953 11.7949 0 9 0C6.20508 0 3.9375 2.51953 3.9375 5.625C3.9375 8.73047 6.20508 11.25 9 11.25ZM13.5 12.5H11.5629C10.7824 12.8984 9.91406 13.125 9 13.125C8.08594 13.125 7.22109 12.8984 6.43711 12.5H4.5C2.01445 12.5 0 14.7383 0 17.5V18.125C0 19.1602 0.755859 20 1.6875 20H16.3125C17.2441 20 18 19.1602 18 18.125V17.5C18 14.7383 15.9855 12.5 13.5 12.5Z" fill="white"/>
</svg>
