<svg width="34" height="34" viewBox="0 0 34 34" fill="none" xmlns="http://www.w3.org/2000/svg">
<path d="M15.716 17.0164L9.24299 19.4027C9.24299 19.4027 8.73379 18.7098 8.30841 18.3553C7.85518 17.9775 7 17.5697 7 17.5697C7 16.0857 7.37341 14.7447 8.30841 13.2052C9.07679 11.94 10.1799 10.9093 10.9512 10.3711C11.4877 11.2342 12.0566 11.7467 12.6954 12.1959C12.9529 12.377 13.2227 12.5484 13.5047 12.7275C13.5936 12.784 13.6838 12.8413 13.7752 12.8999C14.1573 13.145 14.5641 13.4153 15.0028 13.7546C15.4992 14.1385 15.8894 14.4599 16.2505 14.7844C16.2435 15.1212 16.2108 15.8369 16.0613 16.178C15.8455 16.6703 15.716 17.0164 15.716 17.0164Z" fill="#16C995"/>
<path d="M17.61 15.8699C16.7686 14.9837 16.1863 14.4433 15.1221 13.6201C14.6771 13.2759 14.2651 13.0023 13.881 12.756C13.788 12.6964 13.6969 12.6385 13.6074 12.5816L13.6071 12.5814C13.3261 12.4029 13.0614 12.2348 12.8078 12.0565C12.1816 11.6161 11.628 11.1169 11.1032 10.268C11.8079 9.80061 12.3682 9.55514 12.8705 9.3351C13.5343 9.0443 14.0968 8.79791 14.757 8.14241C15.7993 7.10762 16.7196 5 16.7196 5C16.7196 5 23.6298 9.78253 25.7236 13.2621L17.9346 16.173L17.61 15.8699Z" fill="#16C995"/>
<path d="M20.4579 26.6477C19.6035 26.9237 19.6168 26.735 19.6168 26.735C19.6168 26.735 19.6916 25.8263 19.7103 24.8147C19.7201 24.2855 19.707 23.9057 19.3364 23.5053C18.935 23.0716 18.4803 22.941 17.868 22.9816C17.2221 23.0244 17.0325 23.2092 16.7196 23.5926C16.4984 23.8637 16.3808 24.4061 16.3808 24.4061C16.3808 24.4061 16.2057 25.162 15.972 25.6003C15.6364 26.2293 15.0931 27.0688 14.757 26.9969C13.6594 26.762 12.5185 26.3063 11.2991 25.513C10.4086 24.9337 9.24299 23.7672 9.24299 23.7672C9.24299 23.7672 9.70254 22.8358 9.80374 22.196C9.91587 21.487 9.71028 20.3629 9.71028 20.3629L15.3147 18.1935C15.3147 18.1935 15.1501 18.9979 15.3511 19.4525C15.7551 20.3663 16.8673 20.7138 17.868 20.3917C18.954 20.0422 19.5204 19.4016 19.1495 17.9188C19.0055 17.3429 18.6163 16.9586 18.6163 16.9586L26.1871 14.1368C26.7102 15.27 27 16.5191 27 17.8315C27 20.327 25.7206 23.1223 23.729 24.8147C22.8751 25.5402 21.5053 26.3095 20.4579 26.6477Z" fill="#16C995"/>
<path d="M15.716 17.0164L9.24299 19.4027C9.24299 19.4027 8.73379 18.7098 8.30841 18.3553C7.85518 17.9775 7 17.5697 7 17.5697C7 16.0857 7.37341 14.7447 8.30841 13.2052C9.07679 11.94 10.1799 10.9093 10.9512 10.3711C11.4877 11.2342 12.0566 11.7467 12.6954 12.1959C12.9529 12.377 13.2227 12.5484 13.5047 12.7275C13.5936 12.784 13.6838 12.8413 13.7752 12.8999C14.1573 13.145 14.5641 13.4153 15.0028 13.7546C15.4992 14.1385 15.8894 14.4599 16.2505 14.7844C16.2435 15.1212 16.2108 15.8369 16.0613 16.178C15.8455 16.6703 15.716 17.0164 15.716 17.0164Z" fill="#16C995"/>
<path d="M17.61 15.8699C16.7686 14.9837 16.1863 14.4433 15.1221 13.6201C14.6771 13.2759 14.2651 13.0023 13.881 12.756C13.788 12.6964 13.6969 12.6385 13.6074 12.5816L13.6071 12.5814C13.3261 12.4029 13.0614 12.2348 12.8078 12.0565C12.1816 11.6161 11.628 11.1169 11.1032 10.268C11.8079 9.80061 12.3682 9.55514 12.8705 9.3351C13.5343 9.0443 14.0968 8.79791 14.757 8.14241C15.7993 7.10762 16.7196 5 16.7196 5C16.7196 5 23.6298 9.78253 25.7236 13.2621L17.9346 16.173L17.61 15.8699Z" fill="#16C995"/>
<path d="M20.4579 26.6477C19.6035 26.9237 19.6168 26.735 19.6168 26.735C19.6168 26.735 19.6916 25.8263 19.7103 24.8147C19.7201 24.2855 19.707 23.9057 19.3364 23.5053C18.935 23.0716 18.4803 22.941 17.868 22.9816C17.2221 23.0244 17.0325 23.2092 16.7196 23.5926C16.4984 23.8637 16.3808 24.4061 16.3808 24.4061C16.3808 24.4061 16.2057 25.162 15.972 25.6003C15.6364 26.2293 15.0931 27.0688 14.757 26.9969C13.6594 26.762 12.5185 26.3063 11.2991 25.513C10.4086 24.9337 9.24299 23.7672 9.24299 23.7672C9.24299 23.7672 9.70254 22.8358 9.80374 22.196C9.91587 21.487 9.71028 20.3629 9.71028 20.3629L15.3147 18.1935C15.3147 18.1935 15.1501 18.9979 15.3511 19.4525C15.7551 20.3663 16.8673 20.7138 17.868 20.3917C18.954 20.0422 19.5204 19.4016 19.1495 17.9188C19.0055 17.3429 18.6163 16.9586 18.6163 16.9586L26.1871 14.1368C26.7102 15.27 27 16.5191 27 17.8315C27 20.327 25.7206 23.1223 23.729 24.8147C22.8751 25.5402 21.5053 26.3095 20.4579 26.6477Z" fill="#16C995"/>
<path fill-rule="evenodd" clip-rule="evenodd" d="M15.084 13.7198C16.1606 14.5525 16.7496 15.0991 17.6007 15.9956L17.9291 16.3022L25.8081 13.3577C23.6901 9.83783 16.7001 5 16.7001 5C16.7001 5 15.7691 7.13199 14.7147 8.17875C14.0469 8.84183 13.4779 9.09107 12.8064 9.38523C12.2983 9.60782 11.7315 9.85612 11.0187 10.3289C11.5495 11.1876 12.1096 11.6926 12.7431 12.1381C12.9996 12.3185 13.2673 12.4885 13.5515 12.6691L13.5518 12.6693L13.5521 12.6695C13.6426 12.7269 13.7347 12.7855 13.8286 12.8457C14.2171 13.0948 14.6339 13.3716 15.084 13.7198ZM8.68224 22.9816C8.68224 22.9816 7.7994 21.7639 7.46729 20.8867C7.12121 19.9726 7 18.4426 7 18.4426C7 18.4426 8.57798 19.6275 8.86916 20.7121C9.10064 21.5743 8.68224 22.9816 8.68224 22.9816Z" fill="url(#paint0_radial)"/>
<rect x="0.5" y="0.5" width="33" height="33" rx="16.5" stroke="url(#paint1_linear)"/>
<defs>
<radialGradient id="paint0_radial" cx="0" cy="0" r="1" gradientUnits="userSpaceOnUse" gradientTransform="translate(16.5327 14.2527) rotate(-67.8107) scale(7.91875 10.1733)">
<stop offset="0.564605" stop-color="#16C995"/>
<stop offset="1" stop-color="#489B83"/>
</radialGradient>
<linearGradient id="paint1_linear" x1="32.8913" y1="4.80435" x2="2.58695" y2="26.9783" gradientUnits="userSpaceOnUse">
<stop stop-color="#16C995"/>
<stop offset="1" stop-color="#3D7464"/>
</linearGradient>
</defs>
</svg>
